<!DOCTYPE svg PUBLIC "-//W3C//DTD SVG 1.1//EN" "http://www.w3.org/Graphics/SVG/1.1/DTD/svg11.dtd">
<!-- Uploaded to: SVG Repo, www.svgrepo.com, Transformed by: SVG Repo Mixer Tools -->
<svg width="248px" height="248px" viewBox="0 0 36.00 36.00" xmlns="http://www.w3.org/2000/svg" xmlns:xlink="http://www.w3.org/1999/xlink" aria-hidden="true" role="img" class="iconify iconify--twemoji" preserveAspectRatio="xMidYMid meet" fill="#000000" stroke="#000000" stroke-width="2.0160000000000005" transform="rotate(-45)">
<g id="SVGRepo_bgCarrier" stroke-width="0"/>
<g id="SVGRepo_tracerCarrier" stroke-linecap="round" stroke-linejoin="round"/>
<g id="SVGRepo_iconCarrier">
<path fill="#8dc43b" d="M36 32a4 4 0 0 1-4 4H4a4 4 0 0 1-4-4V4a4 4 0 0 1 4-4h28a4 4 0 0 1 4 4v28z"/>
<path fill="#730fd7" d="M24.281 24.907c1.301 0 2.232.713 2.232 2.046c0 1.179-1.117 2.047-2.232 2.047H12.095c-1.643 0-2.604-.93-2.604-2.232c0-.62.217-1.24.62-1.799l9.984-13.952H11.94c-1.24 0-2.17-.713-2.17-1.984c0-1.178.992-2.108 2.17-2.108h11.349c1.797 0 2.603 1.147 2.603 2.232c0 .682-.279 1.457-.682 1.984l-9.922 13.767h8.993z"/>
</g>
</svg>